<?xml version="1.0" encoding="UTF-8" standalone="no"?>
<!-- Generator: Adobe Illustrator 26.0.1, SVG Export Plug-In . SVG Version: 6.00 Build 0)  -->

<svg
   version="1.1"
   id="Layer_1"
   x="0px"
   y="0px"
   viewBox="0 0 450 397.49802"
   xml:space="preserve"
   sodipodi:docname="Bluesky Logo Vector.svg"
   width="450"
   height="397.49802"
   inkscape:version="1.3.2 (091e20ef0f, 2023-11-25)"
   xmlns:inkscape="http://www.inkscape.org/namespaces/inkscape"
   xmlns:sodipodi="http://sodipodi.sourceforge.net/DTD/sodipodi-0.dtd"
   xmlns="http://www.w3.org/2000/svg"
   xmlns:svg="http://www.w3.org/2000/svg"><defs
   id="defs93" /><sodipodi:namedview
   id="namedview93"
   pagecolor="#ffffff"
   bordercolor="#000000"
   borderopacity="0.25"
   inkscape:showpageshadow="2"
   inkscape:pageopacity="0.0"
   inkscape:pagecheckerboard="0"
   inkscape:deskcolor="#d1d1d1"
   inkscape:zoom="2.208"
   inkscape:cx="224.86413"
   inkscape:cy="198.82246"
   inkscape:window-width="2202"
   inkscape:window-height="1361"
   inkscape:window-x="18"
   inkscape:window-y="81"
   inkscape:window-maximized="1"
   inkscape:current-layer="Layer_1" />

<g
   id="g92"
   transform="translate(-25,-51.250716)">
</g>
<g
   id="g93"
   transform="translate(-25,-51.250716)">
	
		<linearGradient
   id="SVGID_1_"
   gradientUnits="userSpaceOnUse"
   x1="-243.5761"
   y1="747.30542"
   x2="-243.5761"
   y2="742.41412"
   gradientTransform="matrix(92,0,0,-81.2664,22659,60782.102)">
		<stop
   offset="0"
   style="stop-color:#0A7AFF"
   id="stop92" />
		<stop
   offset="1"
   style="stop-color:#59B9FF"
   id="stop93" />
	</linearGradient>
	<path
   style="fill:url(#SVGID_1_)"
   d="M 122.545,78.006 C 174.133,116.867 229.63,195.652 250,237.931 v 111.67 c 0,-2.377 -0.914,0.309 -2.883,6.096 -10.631,31.331 -52.158,153.612 -147.115,55.856 C 50.003,360.084 73.15,308.615 164.162,293.076 112.096,301.964 53.56,287.275 37.501,229.689 32.875,213.125 25,111.088 25,97.306 25,28.274 85.321,49.972 122.545,78.006 Z m 254.91,0 C 325.867,116.867 270.37,195.652 250,237.931 v 111.67 c 0,-2.377 0.914,0.309 2.883,6.096 10.631,31.331 52.158,153.612 147.115,55.856 49.999,-51.469 26.852,-102.938 -64.16,-118.477 52.066,8.888 110.602,-5.801 126.661,-63.387 C 467.125,213.125 475,111.088 475,97.306 475,28.274 414.686,49.972 377.455,78.006 Z"
   id="path93" />
</g>
</svg>
