<?xml version="1.0" encoding="UTF-8" standalone="no"?>
<svg
   viewBox="0 0 36.019009 36.019005"
   width="36.019009"
   height="36.019005"
   version="1.1"
   id="svg11"
   sodipodi:docname="instagram.svg"
   inkscape:version="1.3.2 (091e20ef0f, 2023-11-25)"
   xmlns:inkscape="http://www.inkscape.org/namespaces/inkscape"
   xmlns:sodipodi="http://sodipodi.sourceforge.net/DTD/sodipodi-0.dtd"
   xmlns="http://www.w3.org/2000/svg"
   xmlns:svg="http://www.w3.org/2000/svg">
  <defs
     id="defs11" />
  <sodipodi:namedview
     id="namedview11"
     pagecolor="#ffffff"
     bordercolor="#000000"
     borderopacity="0.25"
     inkscape:showpageshadow="2"
     inkscape:pageopacity="0.0"
     inkscape:pagecheckerboard="0"
     inkscape:deskcolor="#d1d1d1"
     inkscape:zoom="23"
     inkscape:cx="17.978261"
     inkscape:cy="18"
     inkscape:window-width="2202"
     inkscape:window-height="1361"
     inkscape:window-x="18"
     inkscape:window-y="81"
     inkscape:window-maximized="1"
     inkscape:current-layer="svg11" />
  <radialGradient
     id="yOrnnhliCrdS2gy~4tD8ma"
     cx="19.379999"
     cy="42.035"
     r="44.898998"
     gradientUnits="userSpaceOnUse"
     gradientTransform="translate(-5.9899967,-5.9899967)">
    <stop
       offset="0"
       stop-color="#fd5"
       id="stop1" />
    <stop
       offset=".328"
       stop-color="#ff543f"
       id="stop2" />
    <stop
       offset=".348"
       stop-color="#fc5245"
       id="stop3" />
    <stop
       offset=".504"
       stop-color="#e64771"
       id="stop4" />
    <stop
       offset=".643"
       stop-color="#d53e91"
       id="stop5" />
    <stop
       offset=".761"
       stop-color="#cc39a4"
       id="stop6" />
    <stop
       offset=".841"
       stop-color="#c837ab"
       id="stop7" />
  </radialGradient>
  <path
     fill="url(#yOrnnhliCrdS2gy~4tD8ma)"
     d="m 28.027003,36.000003 -19.9999997,0.019 c -4.4,0.004 -8.00299997,-3.592 -8.00799997,-7.992 L 3.3338129e-6,8.0270033 C -0.00399667,3.6270033 3.5920033,0.02400333 7.9920033,0.01900333 L 27.992003,3.3338129e-6 C 32.392003,-0.00399667 35.995003,3.5920033 36.000003,7.9920033 l 0.019,19.9999997 c 0.005,4.401 -3.592,8.004 -7.992,8.008 z"
     id="path7"
     style="fill:url(#yOrnnhliCrdS2gy~4tD8ma)" />
  <radialGradient
     id="yOrnnhliCrdS2gy~4tD8mb"
     cx="11.786"
     cy="5.54"
     r="29.813"
     gradientTransform="matrix(1,0,0,0.6663,-5.9899967,-4.1409967)"
     gradientUnits="userSpaceOnUse">
    <stop
       offset="0"
       stop-color="#4168c9"
       id="stop8" />
    <stop
       offset=".999"
       stop-color="#4168c9"
       stop-opacity="0"
       id="stop9" />
  </radialGradient>
  <path
     fill="url(#yOrnnhliCrdS2gy~4tD8mb)"
     d="m 28.027003,36.000003 -19.9999997,0.019 c -4.4,0.004 -8.00299997,-3.592 -8.00799997,-7.992 L 3.3338129e-6,8.0270033 C -0.00399667,3.6270033 3.5920033,0.02400333 7.9920033,0.01900333 L 27.992003,3.3338129e-6 C 32.392003,-0.00399667 35.995003,3.5920033 36.000003,7.9920033 l 0.019,19.9999997 c 0.005,4.401 -3.592,8.004 -7.992,8.008 z"
     id="path9"
     style="fill:url(#yOrnnhliCrdS2gy~4tD8mb)" />
  <path
     fill="#ffffff"
     d="m 18.010003,25.010003 c -3.859,0 -7,-3.14 -7,-7 0,-3.86 3.141,-7 7,-7 3.859,0 7,3.14 7,7 0,3.86 -3.141,7 -7,7 z m 0,-12 c -2.757,0 -5,2.243 -5,5 0,2.757 2.243,5 5,5 2.757,0 5,-2.243 5,-5 0,-2.757 -2.243,-5 -5,-5 z"
     id="path10" />
  <circle
     cx="25.510004"
     cy="10.510003"
     r="1.5"
     fill="#ffffff"
     id="circle10" />
  <path
     fill="#ffffff"
     d="m 24.010003,31.010003 h -12 c -3.8589997,0 -6.9999997,-3.14 -6.9999997,-7 v -12 c 0,-3.8599997 3.141,-6.9999997 6.9999997,-6.9999997 h 12 c 3.859,0 7,3.14 7,6.9999997 v 12 c 0,3.86 -3.141,7 -7,7 z m -12,-23.9999997 c -2.7569997,0 -4.9999997,2.243 -4.9999997,4.9999997 v 12 c 0,2.757 2.243,5 4.9999997,5 h 12 c 2.757,0 5,-2.243 5,-5 v -12 c 0,-2.7569997 -2.243,-4.9999997 -5,-4.9999997 z"
     id="path11" />
</svg>
