<?xml version="1.0" encoding="UTF-8" standalone="no"?>
<svg
   viewBox="0 0 50 50"
   width="50"
   height="50"
   version="1.1"
   id="svg4"
   sodipodi:docname="signal.svg"
   inkscape:version="1.3.2 (091e20ef0f, 2023-11-25)"
   xmlns:inkscape="http://www.inkscape.org/namespaces/inkscape"
   xmlns:sodipodi="http://sodipodi.sourceforge.net/DTD/sodipodi-0.dtd"
   xmlns="http://www.w3.org/2000/svg"
   xmlns:svg="http://www.w3.org/2000/svg">
  <defs
     id="defs4" />
  <sodipodi:namedview
     id="namedview4"
     pagecolor="#ffffff"
     bordercolor="#000000"
     borderopacity="0.25"
     inkscape:showpageshadow="2"
     inkscape:pageopacity="0.0"
     inkscape:pagecheckerboard="0"
     inkscape:deskcolor="#d1d1d1"
     inkscape:zoom="17.25"
     inkscape:cx="24.985507"
     inkscape:cy="25.014493"
     inkscape:window-width="2202"
     inkscape:window-height="1361"
     inkscape:window-x="18"
     inkscape:window-y="81"
     inkscape:window-maximized="1"
     inkscape:current-layer="svg4" />
  <linearGradient
     id="X3oB5lB5Vgrd6Y-4Uihlxa"
     x1="32"
     x2="32"
     y1="53.375"
     y2="14.625"
     gradientTransform="matrix(1,0,0,-1,-7,59)"
     gradientUnits="userSpaceOnUse">
    <stop
       offset="0"
       stop-color="#6dc7ff"
       id="stop1" />
    <stop
       offset="1"
       stop-color="#e6abff"
       id="stop2" />
  </linearGradient>
  <path
     fill="url(#X3oB5lB5Vgrd6Y-4Uihlxa)"
     d="M 25,5.625 C 14.299,5.625 5.625,14.299 5.625,25 c 0,4.117 1.294,7.928 3.483,11.066 L 7.5,42.5 14.06,40.986 C 17.174,43.121 20.939,44.375 25,44.375 35.701,44.375 44.375,35.701 44.375,25 44.375,14.299 35.701,5.625 25,5.625 Z"
     id="path2"
     style="fill:url(#X3oB5lB5Vgrd6Y-4Uihlxa)" />
  <linearGradient
     id="X3oB5lB5Vgrd6Y-4Uihlxb"
     x1="32"
     x2="32"
     y1="59"
     y2="9"
     gradientTransform="matrix(1,0,0,-1,-7,59)"
     gradientUnits="userSpaceOnUse">
    <stop
       offset="0"
       stop-color="#1a6dff"
       id="stop3" />
    <stop
       offset="1"
       stop-color="#c822ff"
       id="stop4" />
  </linearGradient>
  <path
     fill="url(#X3oB5lB5Vgrd6Y-4Uihlxb)"
     d="m 25,50 c -1.282,0 -2.57,-0.099 -3.828,-0.293 l 0.381,-2.471 c 1.932,0.298 3.936,0.345 5.906,0.132 l 0.266,2.485 C 26.821,49.951 25.905,50 25,50 Z m 5.322,-0.568 -0.53,-2.444 c 1.929,-0.417 3.795,-1.091 5.549,-2.002 l 1.152,2.219 c -1.95,1.013 -4.026,1.762 -6.171,2.227 z M 18.597,49.17 c -2.12,-0.562 -4.161,-1.404 -6.066,-2.504 l 1.25,-2.166 c 1.713,0.99 3.549,1.747 5.455,2.252 z M 2.76,44.132 4.13,38.975 6.554,39.58 5.256,44.774 10.677,43.523 11.239,45.96 5.73,47.212 C 3.897,47.628 2.277,45.949 2.76,44.132 Z m 36.002,1.741 -1.377,-2.085 c 1.648,-1.089 3.148,-2.391 4.459,-3.872 l 1.873,1.658 c -1.457,1.644 -3.124,3.09 -4.955,4.299 z m 6.591,-6.354 -2.034,-1.453 c 1.151,-1.611 2.084,-3.363 2.77,-5.208 l 2.344,0.872 c -0.765,2.052 -1.801,3.999 -3.08,5.789 z M 3.488,37.717 C 2.366,35.825 1.498,33.796 0.911,31.687 l 2.407,-0.671 c 0.53,1.898 1.31,3.723 2.321,5.427 z m 45.731,-6.496 -2.422,-0.62 c 0.465,-1.819 0.702,-3.704 0.703,-5.602 L 47.499,24.74 49.999,24.708 50,25 c -10e-4,2.107 -0.264,4.199 -0.781,6.221 z M 0.341,29.116 C 0.115,27.764 0,26.379 0,25 0,24.189 0.039,23.369 0.117,22.563 l 2.488,0.239 C 2.535,23.53 2.5,24.269 2.5,25 c 0,1.241 0.103,2.488 0.306,3.704 z m 47.008,-6.742 c -0.228,-1.965 -0.715,-3.89 -1.447,-5.721 l 2.322,-0.928 c 0.813,2.036 1.354,4.176 1.608,6.361 z M 2.955,20.463 0.506,19.963 c 0.441,-2.152 1.166,-4.237 2.155,-6.198 l 2.231,1.125 c -0.888,1.764 -1.54,3.639 -1.937,5.573 z m 41.953,-5.956 c -0.922,-1.744 -2.073,-3.364 -3.42,-4.816 l 1.833,-1.702 c 1.495,1.613 2.773,3.412 3.796,5.348 z M 6.067,12.838 3.965,11.483 C 5.154,9.639 6.581,7.955 8.206,6.482 l 1.68,1.851 C 8.423,9.661 7.137,11.176 6.067,12.838 Z M 39.789,8.043 C 38.299,6.742 36.644,5.642 34.874,4.776 L 35.973,2.53 c 1.968,0.962 3.805,2.184 5.461,3.63 z M 11.72,6.835 10.243,4.818 c 1.775,-1.3 3.711,-2.36 5.754,-3.147 l 0.901,2.332 C 15.06,4.712 13.318,5.665 11.72,6.835 Z M 32.697,3.85 C 30.844,3.175 28.905,2.749 26.935,2.582 l 0.21,-2.49 c 2.191,0.186 4.347,0.659 6.406,1.41 z M 19.147,3.268 18.5,0.853 C 20.609,0.287 22.797,0 25,0 v 2.5 c -1.985,0 -3.954,0.259 -5.853,0.768 z"
     id="path4"
     style="fill:url(#X3oB5lB5Vgrd6Y-4Uihlxb)" />
</svg>
