<?xml version="1.0" encoding="UTF-8" standalone="no"?>
<svg
   viewBox="0 0 40.133411 40.304001"
   width="40.133411"
   height="40.304001"
   fill-rule="evenodd"
   clip-rule="evenodd"
   version="1.1"
   id="svg5"
   sodipodi:docname="whatsapp.svg"
   inkscape:version="1.3.2 (091e20ef0f, 2023-11-25)"
   xmlns:inkscape="http://www.inkscape.org/namespaces/inkscape"
   xmlns:sodipodi="http://sodipodi.sourceforge.net/DTD/sodipodi-0.dtd"
   xmlns="http://www.w3.org/2000/svg"
   xmlns:svg="http://www.w3.org/2000/svg">
  <defs
     id="defs5" />
  <sodipodi:namedview
     id="namedview5"
     pagecolor="#ffffff"
     bordercolor="#000000"
     borderopacity="0.25"
     inkscape:showpageshadow="2"
     inkscape:pageopacity="0.0"
     inkscape:pagecheckerboard="0"
     inkscape:deskcolor="#d1d1d1"
     inkscape:zoom="23"
     inkscape:cx="20.108696"
     inkscape:cy="20"
     inkscape:window-width="2202"
     inkscape:window-height="1361"
     inkscape:window-x="18"
     inkscape:window-y="81"
     inkscape:window-maximized="1"
     inkscape:current-layer="svg5" />
  <path
     fill="#ffffff"
     d="m 1.0004115,39.303 2.694,-9.835 c -1.662,-2.878 -2.536,-6.144 -2.535,-9.489 C 1.1644115,9.514 9.6804115,1 20.146411,1 c 5.079,0.002 9.845,1.979 13.43,5.566 3.584,3.588 5.558,8.356 5.556,13.428 -0.004,10.465 -8.522,18.98 -18.986,18.98 -0.001,0 0,0 0,0 h -0.008 c -3.177,-10e-4 -6.3,-0.798 -9.073,-2.311 z"
     id="path1" />
  <path
     fill="#ffffff"
     d="m 1.0004115,39.803 c -0.13200002,0 -0.26000002,-0.052 -0.35500002,-0.148 -0.125,-0.127 -0.174,-0.312 -0.127,-0.483 L 3.1574115,29.536 C 1.5214115,26.63 0.65841148,23.33 0.66041148,19.98 0.66441148,9.238 9.4054115,0.5 20.146411,0.5 c 5.21,0.002 10.105,2.031 13.784,5.713 3.679,3.683 5.704,8.577 5.702,13.781 -0.004,10.741 -8.746,19.48 -19.486,19.48 -3.189,-10e-4 -6.344,-0.788 -9.144,-2.277 l -9.8749995,2.589 c -0.042,0.012 -0.084,0.017 -0.127,0.017 z"
     id="path2" />
  <path
     fill="#cfd8dc"
     d="m 20.146411,1 c 5.079,0.002 9.845,1.979 13.43,5.566 3.584,3.588 5.558,8.356 5.556,13.428 -0.004,10.465 -8.522,18.98 -18.986,18.98 h -0.008 c -3.177,-10e-4 -6.3,-0.798 -9.073,-2.311 l -10.0649995,2.64 2.694,-9.835 c -1.662,-2.878 -2.536,-6.144 -2.535,-9.489 C 1.1644115,9.514 9.6804115,1 20.146411,1 m 0,37.974 c 0,0 0,0 0,0 0,0 0,0 0,0 m 0,0 c 0,0 0,0 0,0 0,0 0,0 0,0 m 0,-38.974 c 0,0 0,0 0,0 C 9.1304115,0 0.16441148,8.962 0.15941148,19.979 c -0.001,3.367 0.84900002,6.685 2.46100002,9.622 L 0.03541148,39.04 c -0.094,0.345 0.002,0.713 0.254,0.967 0.19,0.192 0.447,0.297 0.71100002,0.297 0.085,0 0.17,-0.011 0.254,-0.033 l 9.6869995,-2.54 c 2.828,1.468 5.998,2.243 9.197,2.244 11.024,0 19.99,-8.963 19.995,-19.98 0.002,-5.339 -2.075,-10.359 -5.848,-14.135 -3.775,-3.777 -8.796,-5.858 -14.139,-5.86 z"
     id="path3" />
  <path
     fill="#40c351"
     d="m 31.308411,8.832 c -2.98,-2.982 -6.941,-4.625 -11.157,-4.626 -8.704,0 -15.7829995,7.076 -15.7869995,15.774 -0.001,2.981 0.833,5.883 2.413,8.396 l 0.376,0.597 -1.595,5.821 5.9729995,-1.566 0.577,0.342 c 2.422,1.438 5.2,2.198 8.032,2.199 h 0.006 c 8.698,0 15.777,-7.077 15.78,-15.776 10e-4,-4.215 -1.638,-8.179 -4.618,-11.161 z"
     id="path4" />
  <path
     fill="#ffffff"
     fill-rule="evenodd"
     d="m 15.400411,12.045 c -0.355,-0.79 -0.729,-0.806 -1.068,-0.82 -0.277,-0.012 -0.593,-0.011 -0.909,-0.011 -0.316,0 -0.83,0.119 -1.265,0.594 -0.435,0.475 -1.661,1.622 -1.661,3.956 0,2.334 1.7,4.59 1.937,4.906 0.237,0.316 3.282,5.259 8.104,7.161 4.007,1.58 4.823,1.266 5.693,1.187 0.87,-0.079 2.807,-1.147 3.202,-2.255 0.395,-1.108 0.395,-2.057 0.277,-2.255 -0.119,-0.198 -0.435,-0.316 -0.909,-0.554 -0.474,-0.238 -2.807,-1.385 -3.242,-1.543 -0.435,-0.158 -0.751,-0.237 -1.068,0.238 -0.316,0.474 -1.225,1.543 -1.502,1.859 -0.277,0.317 -0.554,0.357 -1.028,0.119 -0.474,-0.238 -2.002,-0.738 -3.815,-2.354 -1.41,-1.257 -2.362,-2.81 -2.639,-3.285 -0.277,-0.474 -0.03,-0.731 0.208,-0.968 0.213,-0.213 0.474,-0.554 0.712,-0.831 0.237,-0.277 0.316,-0.475 0.474,-0.791 0.158,-0.317 0.079,-0.594 -0.04,-0.831 -0.117,-0.238 -1.039,-2.584 -1.461,-3.522 z"
     clip-rule="evenodd"
     id="path5" />
</svg>
